<svg width="23" height="24" viewBox="0 0 23 24" fill="none" xmlns="http://www.w3.org/2000/svg">
<path d="M6.93067 19.4544C6.5461 19.4544 6.21854 19.3192 5.94798 19.0488C5.67757 18.7783 5.54236 18.4507 5.54236 18.0661V10.5303C5.54236 10.1458 5.67757 9.81822 5.94798 9.54766C6.21854 9.27725 6.5461 9.14204 6.93067 9.14204H8.12046V7.42331C8.12046 6.46583 8.45404 5.65359 9.12119 4.98657C9.7882 4.31942 10.6004 3.98584 11.5579 3.98584C12.5154 3.98584 13.3277 4.31942 13.9947 4.98657C14.6618 5.65359 14.9954 6.46583 14.9954 7.42331V9.14204H16.1852C16.5698 9.14204 16.8973 9.27725 17.1679 9.54766C17.4383 9.81822 17.5735 10.1458 17.5735 10.5303V18.0661C17.5735 18.4507 17.4383 18.7783 17.1679 19.0488C16.8973 19.3192 16.5698 19.4544 16.1852 19.4544H6.93067ZM6.93067 18.5951H16.1852C16.3394 18.5951 16.4662 18.5455 16.5655 18.4464C16.6646 18.3472 16.7141 18.2204 16.7141 18.0661V10.5303C16.7141 10.3761 16.6646 10.2493 16.5655 10.1501C16.4662 10.051 16.3394 10.0014 16.1852 10.0014H6.93067C6.77641 10.0014 6.64965 10.051 6.5504 10.1501C6.45128 10.2493 6.40173 10.3761 6.40173 10.5303V18.0661C6.40173 18.2204 6.45128 18.3472 6.5504 18.4464C6.64965 18.5455 6.77641 18.5951 6.93067 18.5951ZM11.5579 15.5873C11.9204 15.5873 12.2259 15.463 12.4742 15.2145C12.7227 14.9662 12.847 14.6608 12.847 14.2982C12.847 13.9357 12.7227 13.6303 12.4742 13.3819C12.2259 13.1334 11.9204 13.0092 11.5579 13.0092C11.1954 13.0092 10.89 13.1334 10.6416 13.3819C10.3931 13.6303 10.2689 13.9357 10.2689 14.2982C10.2689 14.6608 10.3931 14.9662 10.6416 15.2145C10.89 15.463 11.1954 15.5873 11.5579 15.5873ZM8.97983 9.14204H14.136V7.42331C14.136 6.70717 13.8854 6.09845 13.3841 5.59715C12.8828 5.09586 12.2741 4.84521 11.5579 4.84521C10.8418 4.84521 10.2331 5.09586 9.73177 5.59715C9.23048 6.09845 8.97983 6.70717 8.97983 7.42331V9.14204Z" fill="white"/>
</svg>
