<svg width="23" height="24" viewBox="0 0 23 24" fill="none" xmlns="http://www.w3.org/2000/svg">
<path d="M11.5579 11.5551C10.7733 11.5551 10.1016 11.2758 9.54282 10.717C8.98405 10.1582 8.70467 9.48654 8.70467 8.70189C8.70467 7.91724 8.98405 7.24554 9.54282 6.68678C10.1016 6.12801 10.7733 5.84863 11.5579 5.84863C12.3426 5.84863 13.0143 6.12801 13.573 6.68678C14.1318 7.24554 14.4112 7.91724 14.4112 8.70189C14.4112 9.48654 14.1318 10.1582 13.573 10.717C13.0143 11.2758 12.3426 11.5551 11.5579 11.5551ZM4.90033 17.4447V16.8667C4.90033 16.4741 5.01462 16.1067 5.2432 15.7647C5.47193 15.4227 5.77953 15.1572 6.16599 14.9681C7.06349 14.5378 7.96156 14.2149 8.86017 13.9997C9.75879 13.7846 10.658 13.677 11.5579 13.677C12.4578 13.677 13.3571 13.7846 14.2557 13.9997C15.1543 14.2149 16.0524 14.5378 16.9499 14.9681C17.3363 15.1572 17.6439 15.4227 17.8727 15.7647C18.1012 16.1067 18.2155 16.4741 18.2155 16.8667V17.4447C18.2155 17.7239 18.1207 17.9583 17.9312 18.1478C17.7416 18.3376 17.5071 18.4324 17.2278 18.4324H5.88803C5.60873 18.4324 5.37429 18.3376 5.1847 18.1478C4.99512 17.9583 4.90033 17.7239 4.90033 17.4447ZM5.85142 17.4814H17.2644V16.8667C17.2644 16.6557 17.1964 16.4576 17.0604 16.2723C16.9246 16.087 16.7365 15.9303 16.4962 15.8022C15.7135 15.4231 14.9064 15.1326 14.075 14.9308C13.2436 14.729 12.4046 14.6281 11.5579 14.6281C10.7113 14.6281 9.87229 14.729 9.04088 14.9308C8.20947 15.1326 7.4024 15.4231 6.61965 15.8022C6.37935 15.9303 6.19127 16.087 6.05542 16.2723C5.91942 16.4576 5.85142 16.6557 5.85142 16.8667V17.4814ZM11.5579 10.6041C12.081 10.6041 12.5288 10.4178 12.9013 10.0453C13.2738 9.67279 13.4601 9.22499 13.4601 8.70189C13.4601 8.17879 13.2738 7.73099 12.9013 7.35848C12.5288 6.98597 12.081 6.79972 11.5579 6.79972C11.0348 6.79972 10.587 6.98597 10.2145 7.35848C9.84201 7.73099 9.65576 8.17879 9.65576 8.70189C9.65576 9.22499 9.84201 9.67279 10.2145 10.0453C10.587 10.4178 11.0348 10.6041 11.5579 10.6041Z" fill="white"/>
</svg>
